EMG
version=1
nRows=20
nColumns=17
inDegrees=no
endheader
time	EMG01_right_gast_med	EMG02_right_glut_max	EMG03_left_gast_med	EMG04_left_glut_max	EMG05_right_glut_med	EMG06_right_bic_fem	EMG07_right_rect_fem	EMG08_right_vast_lat	EMG09_right_vast_med	EMG10_right_tens_fasc_lat	EMG11_left_glut_med	EMG12_left_bic_fem	EMG13_left_rect_fem	EMG14_left_vast_lat	EMG15_left_vast_med	EMG16_left_tens_fasc_lat
      1.50000000	     87.59619904	     21.37000465	      0.04710698	    -45.76049423	    -48.36930084	     -1.27856815	     -0.37487850	    -15.67407227	     -7.16175127	     -6.11410570	     -0.36490154	     38.90124512	    -11.73573017	      2.96570969	    -20.24230957	    299.44091797
      1.51000000	    -40.24534607	      6.16033030	    -11.97282505	   -206.95996094	     -7.47453403	      2.45913243	      1.64704013	     -8.73445511	     14.57694912	     -2.33128309	     -1.47205114	     11.58713531	    -14.32410717	     -0.73566818	     -9.13014507	    207.58634949
      1.52000000	    -39.23938370	    -35.91658020	     -5.53003645	   -316.23706055	     55.43669128	    -32.87921906	     -0.73166752	      5.49887323	      6.89599133	     15.22026443	    -12.56399345	    -15.40387344	    -15.70318794	    -12.61408806	      1.80716825	    153.61589050
      1.53000000	    122.16979980	    -59.79586029	     -7.81836224	   -303.80715942	   -107.23692322	     30.42085838	     -6.78658390	      6.50650358	    -10.48579693	     22.70165825	     14.85100365	    -11.98900795	    -12.59325600	     -3.21030712	     -2.55437779	    183.22702026
      1.54000000	   -193.73736572	    -74.51651764	     -2.84911489	   -136.83288574	    -32.45726776	      4.14976311	     -4.76997232	     16.28343201	    -22.05604172	    -31.98993111	     -6.65561485	     21.36145210	     -9.43775558	      9.33013630	      5.09941244	    264.82141113
      1.55000000	    169.50564575	    -77.33038330	     -1.90711808	    -37.71608734	    -27.01836395	    -15.61677742	     -3.23454070	     22.13011551	    -28.98420143	    -62.31221771	     18.77297592	    -52.09770966	     -8.89983559	     16.27419472	      3.07659769	     65.76311493
      1.56000000	    -47.97366333	    -50.56607819	    -14.36509800	    -13.01086903	      9.09711075	     -3.67743945	      0.71437120	     16.76699257	    -25.45585632	    -56.14533615	     11.14324856	    -36.97537231	    -13.91972923	    -27.40989494	     10.22914314	    -51.61915970
      1.57000000	     -6.08802032	    -27.84170151	     -6.86267948	     14.06550407	     37.80270004	     16.65677452	      2.91054368	     17.84439850	    -26.57237816	    -38.30086899	     -1.34901428	     16.26937294	      1.33813095	    -20.68233871	     17.93057251	    -66.94726562
      1.58000000	    144.12236023	    -15.25425816	    -14.47545719	     54.87881088	     34.14847946	    -15.38428402	      2.57001543	     -1.86328173	      2.39049602	      2.31487322	      1.97282171	    -18.57443428	    -19.24510574	     11.00121403	     10.21744633	    -91.82485199
      1.59000000	   -170.60020447	    -13.77595425	     -2.86190915	     88.90412903	    -84.06866455	    -24.47429848	     -3.09749508	     -9.30722141	     22.70402527	     -4.37291527	      4.08012199	    -18.35929489	     -0.40733659	    -27.03897476	      4.18462706	   -104.06258392
      1.60000000	     56.59892273	     -4.89084101	     -4.01694918	     94.34933472	    -65.45203400	      2.21507645	     -1.64977741	    -13.42230988	     41.77484894	    -20.84655762	      6.16643047	     15.84420395	     19.85354996	    -18.45614243	     29.73913956	   -143.33563232
      1.61000000	    261.33868408	     -2.28106141	    -10.18117237	    113.67378235	     31.37130928	    -21.07722092	     -4.32319689	    -16.84010887	     42.77051163	    -31.62345886	     -0.85665417	    -14.87083435	    -21.85987091	    -15.34639931	      1.65252614	   -186.51618958
      1.62000000	    409.69583130	     12.09557056	      2.17399573	    100.25932312	     73.37028503	     42.23175049	    -11.20277214	    -21.37870598	     28.25706863	    -62.13684082	     -6.02935791	     10.87661552	    -26.25411987	    -41.47254181	     43.22334290	   -146.03561401
      1.63000000	    -81.27943420	     25.17282486	      0.80882013	     42.70803833	    113.64221191	    -51.18909454	      3.31603193	    -12.80987358	     21.52737999	    -59.70253754	     21.44978523	    -22.41695213	    -47.53784561	     39.14028168	     11.44720745	   -140.23065186
      1.64000000	    -19.08838272	     28.79030991	      2.32338262	    -52.62233353	     73.90242004	     -5.84969521	      2.39771366	     -4.94840479	     -6.29463339	    -47.02507401	      8.14085293	      7.24944401	    -30.20300484	    -52.39962387	     56.28762817	   -133.45816040
      1.65000000	    221.66281128	     41.01105499	     -2.78894424	    -92.39014435	     17.53802109	      7.97597599	     -5.20430565	    -12.72008896	    -18.77780533	    -55.44594955	     -7.70473194	     21.82878685	    -24.58359146	    -36.28730774	     53.08354950	   -174.84434509
      1.66000000	    -61.02647400	     34.48343658	      1.39701641	      6.50730324	     25.03241730	     -3.83464170	     -0.49838179	    -19.75685310	    -33.89211273	    -65.69515228	      9.92360783	    -95.28524780	    -54.65592575	     45.09397507	    100.74150848	   -108.78005981
      1.67000000	   -132.47352600	     24.82415962	      7.90547895	     47.98680115	     12.56367207	     -8.15681839	     -3.60132313	    -19.05811119	    -40.86156082	    -40.00577545	     -9.96996021	    -32.09525299	    -40.20845032	     31.04568100	     50.02625656	    -79.81119537
      1.68000000	     23.56280327	     24.49917984	     -0.22040915	      5.72407675	    -29.79321098	     -5.64802504	      0.26397991	    -18.16550636	    -52.80906296	     -7.37913322	    -10.67249298	     70.06819916	     -9.02821159	     42.84176254	     83.84092712	     20.03802299
      1.69000000	     34.46061707	     27.31144714	      7.42855501	    -16.32727051	    -19.24889946	    -11.56830025	     21.62192917	    -16.92430305	    -45.76134872	    -11.37004662	     25.06894875	     -0.37123168	     -7.07230043	    -35.67042160	     23.33801651	     48.48527145
